<?xml version="1.0" encoding="utf-8"?>
<!-- Generator: Adobe Illustrator 17.1.0, SVG Export Plug-In . SVG Version: 6.00 Build 0)  -->
<!DOCTYPE svg PUBLIC "-//W3C//DTD SVG 1.1//EN" "http://www.w3.org/Graphics/SVG/1.1/DTD/svg11.dtd">
<svg version="1.1" id="Layer_1" xmlns="http://www.w3.org/2000/svg" xmlns:xlink="http://www.w3.org/1999/xlink" x="0px" y="0px"
	 viewBox="0 0 156.861 16.19" enable-background="new 0 0 156.861 16.19" xml:space="preserve">
<g>
	<path d="M46.443,2.111l5.025,10.775h-1.163L48.61,9.341h-4.642l-1.679,3.545h-1.201l5.091-10.775H46.443z M46.307,4.401l-1.846,3.9
		h3.684L46.307,4.401z"/>
	<path d="M53.167,2.111h2.125c0.854,0,1.511,0.102,1.971,0.304c0.459,0.203,0.821,0.514,1.087,0.934
		c0.266,0.42,0.399,0.887,0.399,1.399c0,0.479-0.117,0.915-0.35,1.308c-0.233,0.393-0.576,0.711-1.028,0.956
		c0.56,0.19,0.991,0.414,1.293,0.67c0.302,0.256,0.537,0.566,0.705,0.93s0.252,0.758,0.252,1.183c0,0.864-0.316,1.596-0.949,2.194
		c-0.632,0.598-1.481,0.897-2.545,0.897h-2.959V2.111z M54.222,3.166v3.45h0.616c0.749,0,1.299-0.069,1.652-0.208
		s0.631-0.359,0.837-0.66c0.206-0.3,0.309-0.633,0.309-1c0-0.493-0.173-0.88-0.518-1.161c-0.345-0.281-0.895-0.421-1.648-0.421
		H54.222z M54.222,7.701v4.131h1.335c0.788,0,1.365-0.077,1.731-0.231c0.367-0.154,0.662-0.394,0.884-0.722
		c0.223-0.327,0.334-0.681,0.334-1.062c0-0.479-0.157-0.896-0.469-1.252c-0.313-0.356-0.743-0.601-1.291-0.732
		c-0.367-0.088-1.005-0.132-1.916-0.132H54.222z"/>
	<path d="M66.884,1.84c1.632,0,2.998,0.544,4.098,1.633c1.099,1.089,1.649,2.43,1.649,4.021c0,1.578-0.548,2.916-1.646,4.015
		c-1.097,1.099-2.435,1.648-4.013,1.648c-1.598,0-2.946-0.547-4.046-1.641c-1.1-1.094-1.649-2.417-1.649-3.971
		c0-1.035,0.25-1.995,0.751-2.878s1.184-1.576,2.049-2.077C64.941,2.091,65.877,1.84,66.884,1.84z M66.932,2.888
		c-0.797,0-1.553,0.208-2.267,0.624c-0.714,0.415-1.272,0.975-1.673,1.679C62.59,5.894,62.39,6.678,62.39,7.543
		c0,1.281,0.444,2.362,1.332,3.244s1.958,1.323,3.21,1.323c0.836,0,1.61-0.203,2.322-0.608c0.712-0.406,1.267-0.96,1.666-1.664
		c0.399-0.704,0.598-1.486,0.598-2.346c0-0.855-0.199-1.629-0.598-2.32c-0.398-0.691-0.96-1.245-1.684-1.66
		C68.511,3.096,67.744,2.888,66.932,2.888z"/>
	<path d="M74.828,2.111h1.077v6.505c0,0.771,0.015,1.252,0.044,1.443c0.054,0.425,0.178,0.78,0.374,1.066s0.496,0.525,0.901,0.718
		s0.813,0.29,1.223,0.29c0.356,0,0.699-0.076,1.026-0.227s0.601-0.361,0.82-0.63s0.381-0.594,0.483-0.975
		c0.073-0.273,0.11-0.835,0.11-1.685V2.111h1.077v6.505c0,0.962-0.094,1.74-0.282,2.333s-0.564,1.11-1.128,1.549
		c-0.564,0.439-1.247,0.659-2.048,0.659c-0.869,0-1.614-0.208-2.234-0.623s-1.036-0.964-1.246-1.648
		c-0.132-0.42-0.198-1.177-0.198-2.271V2.111z"/>
	<path d="M83.545,3.166V2.111h5.904v1.055h-2.403v9.721h-1.099V3.166H83.545z"/>
	<path d="M95.192,2.111h1.077v6.505c0,0.771,0.015,1.252,0.044,1.443c0.054,0.425,0.178,0.78,0.374,1.066s0.496,0.525,0.901,0.718
		s0.813,0.29,1.223,0.29c0.356,0,0.699-0.076,1.026-0.227s0.601-0.361,0.82-0.63s0.381-0.594,0.483-0.975
		c0.073-0.273,0.11-0.835,0.11-1.685V2.111h1.077v6.505c0,0.962-0.094,1.74-0.282,2.333s-0.564,1.11-1.128,1.549
		c-0.564,0.439-1.247,0.659-2.048,0.659c-0.869,0-1.614-0.208-2.234-0.623s-1.036-0.964-1.246-1.648
		c-0.132-0.42-0.198-1.177-0.198-2.271V2.111z"/>
	<path d="M103.865,10.879l0.916-0.549c0.645,1.187,1.39,1.78,2.234,1.78c0.361,0,0.701-0.084,1.018-0.253s0.559-0.394,0.725-0.677
		s0.25-0.583,0.25-0.901c0-0.361-0.123-0.715-0.367-1.062c-0.337-0.479-0.952-1.055-1.846-1.729
		c-0.898-0.679-1.458-1.169-1.678-1.472c-0.381-0.508-0.571-1.057-0.571-1.648c0-0.469,0.112-0.896,0.337-1.282
		s0.541-0.689,0.949-0.912c0.408-0.222,0.851-0.333,1.33-0.333c0.508,0,0.983,0.125,1.425,0.377
		c0.442,0.252,0.909,0.714,1.403,1.388l-0.879,0.667c-0.406-0.538-0.751-0.892-1.037-1.062s-0.597-0.256-0.934-0.256
		c-0.435,0-0.79,0.132-1.066,0.396s-0.414,0.589-0.414,0.975c0,0.234,0.048,0.461,0.146,0.681c0.098,0.22,0.276,0.459,0.535,0.718
		c0.142,0.137,0.605,0.496,1.392,1.077c0.933,0.688,1.572,1.302,1.919,1.839c0.347,0.537,0.52,1.077,0.52,1.619
		c0,0.782-0.297,1.46-0.89,2.037s-1.315,0.864-2.165,0.864c-0.654,0-1.248-0.175-1.78-0.524S104.314,11.7,103.865,10.879z"/>
</g>
<line fill="none" stroke="#000000" stroke-width="0.9376" stroke-miterlimit="10" x1="39.018" y1="7.573" x2="0" y2="7.573"/>
<line fill="none" stroke="#000000" stroke-width="0.9376" stroke-miterlimit="10" x1="115.084" y1="7.573" x2="156.861" y2="7.573"/>
</svg>
