<?xml version="1.0" encoding="utf-8"?>
<!-- Generator: Adobe Illustrator 17.1.0, SVG Export Plug-In . SVG Version: 6.00 Build 0)  -->
<!DOCTYPE svg PUBLIC "-//W3C//DTD SVG 1.1//EN" "http://www.w3.org/Graphics/SVG/1.1/DTD/svg11.dtd">
<svg version="1.1" id="Layer_1" xmlns="http://www.w3.org/2000/svg" xmlns:xlink="http://www.w3.org/1999/xlink" x="0px" y="0px"
	 viewBox="0 0 124.823 124.823" enable-background="new 0 0 124.823 124.823" xml:space="preserve">
<circle fill="#7C405C" cx="61.835" cy="61.695" r="61.835"/>
<g>
	<path fill="#FFFFFF" d="M56.077,21.608c3.73-1.812,7.355-2.718,10.874-2.718h2.239c4.158,0.535,7.728,2.454,10.714,5.757
		c1.172,1.279,1.919,2.693,2.239,4.237c0.32,1.547,0.584,5.145,0.8,10.794v4.637c0,3.413-0.055,5.705-0.16,6.876
		c-0.32,1.814-1.334,4.478-3.038,7.995c-1.599,3.306-2.614,6.052-3.039,8.235c-0.427,2.187-0.799,6.157-1.119,11.914
		c-0.215,5.332-0.507,9.062-0.879,11.193c-0.375,2.134-1.095,3.998-2.159,5.597c-2.238,3.623-5.544,5.917-9.914,6.876
		c-1.279,0.32-2.559,0.479-3.838,0.479c-2.878,0-5.544-0.799-7.996-2.398c-2.878-1.919-4.984-4.637-6.316-8.155
		c-1.334-3.518-2.026-7.036-2.079-10.554c-0.055-3.518-0.295-7.596-0.72-12.233c-0.427-4.638-1.279-8.5-2.559-11.594
		c-1.387-3.518-2.079-6.396-2.079-8.635c0-2.131,0.852-4.85,2.559-8.155C44.616,31.417,50.106,24.701,56.077,21.608z M74.946,32.641
		v-4.797l-4.317-0.16H68.87c-2.878,0-5.225,0.215-7.036,0.64c-2.134,0.535-3.998,1.599-5.597,3.198
		c-1.387,1.279-2.266,2.426-2.639,3.438c-0.375,1.015-0.56,2.479-0.56,4.397c0,2.773-0.375,4.585-1.119,5.437
		c-0.747,0.854-2.346,1.279-4.797,1.279c-1.599,0-2.534,0.215-2.798,0.64c-0.268,0.427-0.4,1.654-0.4,3.678
		c0,2.026,0.185,3.253,0.56,3.678c0.373,0.427,1.624,0.799,3.758,1.119l4.158,0.48l0.16,38.698h12.792V55.669l4.797-0.48
		c2.451-0.32,3.863-0.665,4.238-1.04c0.372-0.372,0.56-1.624,0.56-3.758c0-2.131-0.16-3.411-0.48-3.838
		c-0.215-0.212-0.694-0.32-1.439-0.32c-0.427,0-0.959,0.055-1.599,0.16h-0.799c-1.707,0-3.039-0.32-3.998-0.959
		c-1.174-0.64-1.759-1.704-1.759-3.198c0-1.279,0.64-2.371,1.919-3.278c1.279-0.904,2.931-1.412,4.957-1.519
		c1.599,0,2.531-0.212,2.798-0.64C74.812,36.374,74.946,34.987,74.946,32.641z"/>
</g>
</svg>
