<?xml version="1.0" encoding="utf-8"?>
<!-- Generator: Adobe Illustrator 17.1.0, SVG Export Plug-In . SVG Version: 6.00 Build 0)  -->
<!DOCTYPE svg PUBLIC "-//W3C//DTD SVG 1.1//EN" "http://www.w3.org/Graphics/SVG/1.1/DTD/svg11.dtd">
<svg version="1.1" id="Layer_1" xmlns="http://www.w3.org/2000/svg" xmlns:xlink="http://www.w3.org/1999/xlink" x="0px" y="0px"
	 viewBox="0 0 213.227 215.052" enable-background="new 0 0 213.227 215.052" xml:space="preserve">
<g>
	<text transform="matrix(1 0 0 1 68.2387 113.173)" fill="#7C405C" font-family="'MarketingScript'" font-size="106.9075">t </text>
	<text transform="matrix(1 0 0 1 90.1166 124.3659)" fill="#7C405C" font-family="'MarketingScript'" font-size="106.9075">g</text>
</g>
<g>
	<text transform="matrix(1 0 0 1 83.973 168.3268)" fill="#898C51" font-family="'CenturyGothic'" font-size="6.7724">s t y l i n g s</text>
</g>
<text transform="matrix(1 0 0 1 43.6587 160.1169)"><tspan x="0" y="0" fill="#7C405C" font-family="'CenturyGothic'" font-size="12.6389">t a n y a </tspan><tspan x="53.53" y="0" fill="#898C51" font-family="'CenturyGothic'" font-size="12.6389">g o v e a s</tspan></text>
<path fill="#D9D5CC" d="M21.737,63.079c0,0,3-15.859,13-18.363S30.737,59.947,21.737,63.079z"/>
<path fill="#7C405C" d="M39.713,40.745c0,0,6.478-14.783,16.785-14.983S49.186,39.709,39.713,40.745z"/>
<path fill="#898C51" d="M21.265,44.368c0,0,3.82-15.682,13.936-17.663S30.416,41.708,21.265,44.368z"/>
<path fill="#ABA69C" d="M5.915,68.038c0,0,1.309-16.087,10.988-19.633S14.533,63.973,5.915,68.038z"/>
<path fill="#D9D5CC" d="M59.473,24.711c0,0,10.846-11.952,20.681-8.861S68.783,26.744,59.473,24.711z"/>
<path fill="#7C405C" d="M86.471,15.065c0,0,13.249-9.218,22.141-4.001S95.089,19.133,86.471,15.065z"/>
<path fill="#898C51" d="M68.85,8.512c0,0,11.453-11.373,21.113-7.775S78.042,11.026,68.85,8.512z"/>
<path fill="#ABA69C" d="M43.392,20.669c0,0,9.523-13.031,19.629-10.996S52.865,21.708,43.392,20.669z"/>
<path fill="#D9D5CC" d="M115.579,14.307c0,0,15.693-3.772,22.081,4.319C144.048,26.717,122.129,21.229,115.579,14.307z"/>
<path fill="#7C405C" d="M143.323,21.533c0,0,16.139-0.159,20.551,9.158C168.286,40.008,148.155,29.747,143.323,21.533z"/>
<path fill="#898C51" d="M132.448,6.198c0,0,15.868-2.952,21.826,5.46C160.233,20.07,138.63,13.451,132.448,6.198z"/>
<path fill="#ABA69C" d="M104.564,1.913c0,0,15.207-5.408,22.413,1.963C134.184,11.248,111.808,8.104,104.564,1.913z"/>
<path fill="#D9D5CC" d="M166.054,32.974c0,0,15.351,4.986,16.568,15.223S168.02,42.298,166.054,32.974z"/>
<path fill="#7C405C" d="M185.93,53.635c0,0,13.843,8.299,12.735,18.548S185.757,63.163,185.93,53.635z"/>
<path fill="#898C51" d="M184.674,34.877c0,0,15.071,5.777,15.754,16.063S186.153,44.291,184.674,34.877z"/>
<path fill="#ABA69C" d="M163.141,16.65c0,0,15.791,3.337,18.082,13.388S166.081,25.715,163.141,16.65z"/>
<path fill="#D9D5CC" d="M198.154,79.604c0,0,7.534,14.274,1.273,22.463S193.066,87.662,198.154,79.604z"/>
<path fill="#7C405C" d="M198.009,108.273c0,0,4.144,15.599-3.794,22.177C186.278,137.028,191.245,114.985,198.009,108.273z"/>
<path fill="#898C51" d="M210.181,93.945c0,0,6.782,14.646,0.104,22.499C203.607,124.297,204.681,101.728,210.181,93.945z"/>
<path fill="#ABA69C" d="M207.441,65.868c0,0,8.999,13.398,3.638,22.203C205.717,96.875,203.232,74.417,207.441,65.868z"/>
<path fill="#D9D5CC" d="M192.721,137.647c0,0-0.887,16.116-10.471,19.914C172.667,161.36,184.212,141.936,192.721,137.647z"/>
<path fill="#7C405C" d="M177.841,162.152c0,0-4.476,15.507-14.667,17.061C152.983,180.768,168.587,164.426,177.841,162.152z"/>
<path fill="#898C51" d="M195.652,156.133c0,0-1.723,16.048-11.491,19.343C174.393,178.772,186.931,159.974,195.652,156.133z"/>
<path fill="#ABA69C" d="M207.754,130.649c0,0,0.82,16.119-8.309,20.909S199.745,135.813,207.754,130.649z"/>
<path fill="#D9D5CC" d="M157.268,183.081c0,0-9.62,12.96-19.71,10.85C127.467,191.82,147.803,181.972,157.268,183.081z"/>
<path fill="#7C405C" d="M131.348,195.332c0,0-12.279,10.475-21.64,6.157C100.347,197.171,122.373,192.13,131.348,195.332z"/>
<path fill="#898C51" d="M149.528,200.122c0,0-10.28,12.443-20.247,9.811S140.134,198.523,149.528,200.122z"/>
<path fill="#ABA69C" d="M173.669,185.524c0,0-8.197,13.904-18.454,12.871C144.957,197.361,164.14,185.42,173.669,185.524z"/>
<path fill="#D9D5CC" d="M101.821,200.702c0,0-15.398,4.839-22.325-2.796S94.813,194.245,101.821,200.702z"/>
<path fill="#7C405C" d="M73.648,195.393c0,0-16.09,1.265-21.13-7.728C47.478,178.671,68.265,187.529,73.648,195.393z"/>
<path fill="#898C51" d="M85.548,209.947c0,0-15.628,4.032-22.149-3.952C56.877,198.011,78.884,203.135,85.548,209.947z"/>
<path fill="#898C51" d="M85.548,241.447c0,0-15.628,4.032-22.149-3.952C56.877,229.511,78.884,234.635,85.548,241.447z"/>
<path fill="#ABA69C" d="M113.66,212.312c0,0-14.801,6.438-22.495-0.423C83.47,205.028,106.008,206.631,113.66,212.312z"/>
<path fill="#D9D5CC" d="M48.532,184.183c0,0-15.538-4.366-17.165-14.545C29.74,159.458,46.193,174.945,48.532,184.183z"/>
<path fill="#D9D5CC" d="M-60.468,207.369c0,0-15.538-4.366-17.165-14.545S-62.807,198.131-60.468,207.369z"/>
<path fill="#7C405C" d="M29.31,164.673c0,0-13.133-9.382-11.207-19.509S30.246,155.189,29.31,164.673z"/>
<path fill="#898C51" d="M29.059,183.471c0,0-14.559-6.966-14.416-17.274C14.786,155.889,28.339,173.969,29.059,183.471z"/>
<path fill="#ABA69C" d="M52.098,200.377c0,0-15.913-2.7-18.605-12.651S48.797,191.437,52.098,200.377z"/>
<path fill="#ABA69C" d="M-35.402,191.059c0,0-15.913-2.7-18.605-12.651C-56.7,168.457-38.703,182.119-35.402,191.059z"/>
<path fill="#D9D5CC" d="M17.689,140.378c0,0-8.84-13.504-3.374-22.245S21.998,131.879,17.689,140.378z"/>
<path fill="#7C405C" d="M15.144,111.822c0,0-5.589-15.142,1.697-22.435S21.249,104.505,15.144,111.822z"/>
<path fill="#898C51" d="M4.369,127.229c0,0-8.126-13.945-2.214-22.39S9.115,118.965,4.369,127.229z"/>
<path fill="#898C51" d="M14.555,85.043c0,0-1.349-16.084,7.617-21.17S22.39,79.618,14.555,85.043z"/>
<path fill="#D9D5CC" d="M3.063,97.019c0,0-4.114-15.607,3.836-22.17C14.849,68.286,9.84,90.319,3.063,97.019z"/>
<path fill="#ABA69C" d="M9.731,154.926c0,0-10.217-12.495-5.704-21.764S13.12,146.019,9.731,154.926z"/>
</svg>
