<?xml version="1.0" encoding="utf-8"?>
<!-- Generator: Adobe Illustrator 17.1.0, SVG Export Plug-In . SVG Version: 6.00 Build 0)  -->
<!DOCTYPE svg PUBLIC "-//W3C//DTD SVG 1.1//EN" "http://www.w3.org/Graphics/SVG/1.1/DTD/svg11.dtd">
<svg version="1.1" id="Layer_1" xmlns="http://www.w3.org/2000/svg" xmlns:xlink="http://www.w3.org/1999/xlink" x="0px" y="0px"
	 viewBox="0 0 226.27 226.346" enable-background="new 0 0 226.27 226.346" xml:space="preserve">
<g>
	<g>
		<path fill="#7C405C" d="M98.386,107.721c-2.993,2.993-6.485,4.811-10.477,5.452c-1.996,0.356-3.813,0.535-5.452,0.535
			c-4.206,0-7.448-0.712-9.729-2.139c-3.493-2.28-5.06-5.808-4.704-10.584c0.072-1.639,0.997-5.487,2.779-11.546
			c0.855-2.994,1.497-5.273,1.925-6.842c0.428-1.567,0.677-2.422,0.748-2.565c0.07-0.498-0.25-0.855-0.962-1.069
			c-0.571,0-1.194-0.017-1.871-0.053c-0.678-0.035-1.443-0.089-2.299-0.161c-0.641-0.142-0.783-0.641-0.427-1.497
			c0.144-0.428,0.304-0.925,0.48-1.497c0.178-0.57,0.409-1.246,0.695-2.031c0.498-0.712,1.246-1.069,2.245-1.069h1.71
			c0.498,0.072,0.855,0.107,1.069,0.107c0.284,0,0.498,0,0.642,0c0.355,0,0.783-0.355,1.283-1.069
			c0.854-3.063,1.78-6.254,2.779-9.568c0.997-3.314,2.066-6.824,3.207-10.53c0.284-0.712,1.032-1.246,2.245-1.604
			c2.636-0.712,5.309-0.712,8.018,0c1.069,0.357,1.46,1.426,1.177,3.207c-0.999,2.994-1.996,6.04-2.994,9.141
			c-0.998,3.1-1.996,6.291-2.993,9.568c-0.144,0.641,0.143,1.069,0.855,1.283c0.855,0,1.817,0.019,2.887,0.053
			c1.068,0.037,2.208,0.09,3.421,0.161c0.428,0.072,0.712,0.535,0.855,1.39c0.142,0.999-0.107,2.21-0.749,3.635
			c-0.214,0.571-0.678,0.892-1.39,0.962c0.284-0.07-2.138-0.107-7.27-0.107c-0.571,0-0.999,0.321-1.283,0.962
			c-0.785,2.852-1.656,5.917-2.619,9.194c-0.962,3.279-2.015,6.772-3.153,10.477c-0.714,2.352-0.465,4.134,0.748,5.345
			c1.711,1.71,3.991,2.566,6.842,2.566c1.354,0,3.101-0.642,5.239-1.924c1.211-0.712,2.314-1.479,3.313-2.299
			c0.997-0.818,1.853-1.727,2.566-2.726c0.355-0.428,0.641-0.321,0.854,0.321c0.498,1.213,0.677,2.603,0.535,4.169
			C98.992,106.582,98.743,107.365,98.386,107.721z"/>
	</g>
	<g>
		<path fill="#7C405C" d="M145.815,118.914c-2.994,2.993-6.486,4.811-10.478,5.452c-0.785,0.07-1.729,0.177-2.833,0.32
			c-1.105,0.143-2.405,0.284-3.902,0.428c-4.634,0.642-7.376,1.994-8.231,4.062c-3.493,8.195-6.7,13.471-9.622,15.822
			c-2.709,2.422-5.203,3.635-7.483,3.635c-1.568,0-2.887-0.464-3.955-1.39c-1.069-0.927-1.604-2.21-1.604-3.849
			c0-1.354,0.409-2.833,1.229-4.437c0.818-1.604,2.333-3.475,4.543-5.612c1.925-1.854,3.777-3.244,5.56-4.17
			c0.497-0.285,0.997-0.606,1.496-0.962c0.926-1.996,1.871-4.026,2.833-6.094c0.963-2.066,1.941-4.239,2.94-6.521
			c0.355-0.569,0.249-0.855-0.32-0.855c-0.358,0-0.679,0.251-0.963,0.748c-0.999,1.711-3.171,3.707-6.521,5.987
			c-4.206,2.779-7.911,4.025-11.118,3.742c-6.2-0.5-9.301-4.312-9.301-11.439c0-5.202,1.248-10.12,3.742-14.753
			c2.493-4.632,5.986-8.553,10.477-11.76c4.561-3.208,9.122-4.811,13.684-4.811c2.921,0,5.629,0.749,8.124,2.245
			c0.284,0.428,0.642,0.642,1.069,0.642c0.783,0,1.532-0.784,2.245-2.352c0.284-0.498,1.032-1.032,2.245-1.604
			c0.498-0.142,1.532-0.177,3.101-0.107c1.566,0.072,2.673,0.25,3.314,0.534c1.211,0.571,1.817,1.427,1.817,2.566
			c0,0.5-2.104,6.237-6.308,17.212c-3.779,9.766-6.024,15.539-6.735,17.32c-0.072,0.144-0.107,0.25-0.107,0.32
			c0,0.072-0.036,0.144-0.106,0.214c-0.144,0.357-0.144,0.571,0,0.642c0.284,0,0.534-0.035,0.748-0.107
			c2.353-0.497,5.238-0.818,8.66-0.962c1.566,0,3.598-0.818,6.093-2.459c2.066-1.425,3.742-2.921,5.025-4.49
			c0.355-0.428,0.642-0.321,0.855,0.321c0.497,1.213,0.676,2.603,0.534,4.169C146.42,117.774,146.171,118.558,145.815,118.914z
			 M121.975,90.636c-0.927-0.462-1.924-0.695-2.993-0.695c-1.283,0-2.619,0.321-4.009,0.962c-1.391,0.641-2.78,1.497-4.169,2.565
			c-1.39,1.069-2.726,2.352-4.009,3.849c-1.283,1.497-2.459,3.1-3.528,4.811c-2.779,4.49-4.169,8.125-4.169,10.905
			c0,3.064,1.246,4.597,3.741,4.597c2.85,0,7.126-3.956,12.829-11.867c3.136-4.418,5.487-8.623,7.056-12.615
			C123.15,91.938,122.9,91.101,121.975,90.636z"/>
	</g>
</g>
<g>
	<g>
		<path fill="#898C51" d="M70.852,159.001l-0.65,0.672c-0.541-0.524-1.069-0.787-1.585-0.787c-0.328,0-0.609,0.108-0.843,0.325
			c-0.234,0.216-0.351,0.469-0.351,0.758c0,0.255,0.096,0.498,0.289,0.729c0.193,0.235,0.598,0.513,1.216,0.83
			c0.752,0.39,1.264,0.766,1.534,1.127c0.265,0.365,0.398,0.777,0.398,1.234c0,0.646-0.227,1.191-0.68,1.639
			c-0.453,0.448-1.02,0.672-1.699,0.672c-0.453,0-0.886-0.099-1.298-0.296c-0.413-0.197-0.753-0.47-1.023-0.816l0.635-0.722
			c0.516,0.582,1.064,0.874,1.643,0.874c0.405,0,0.75-0.13,1.035-0.391c0.285-0.26,0.427-0.565,0.427-0.917
			c0-0.288-0.094-0.546-0.282-0.772c-0.188-0.222-0.613-0.5-1.273-0.838c-0.709-0.365-1.192-0.727-1.447-1.083
			c-0.256-0.355-0.384-0.763-0.384-1.22c0-0.597,0.204-1.093,0.611-1.487c0.407-0.396,0.922-0.593,1.544-0.593
			C69.391,157.939,70.119,158.294,70.852,159.001z"/>
		<path fill="#898C51" d="M77.617,155.225h1.011v2.917h1.603v0.874h-1.603v6.982h-1.011v-6.982h-1.379v-0.874h1.379V155.225z"/>
		<path fill="#898C51" d="M84.997,158.142h1.068l2.7,6.05l2.622-6.05h1.076l-4.687,10.73h-1.068l1.513-3.469L84.997,158.142z"/>
		<path fill="#898C51" d="M97.712,155.109h1.011v10.889h-1.011V155.109z"/>
		<path fill="#898C51" d="M105.269,154.907c0.23,0,0.427,0.082,0.589,0.245c0.163,0.164,0.245,0.361,0.245,0.592
			c0,0.227-0.082,0.422-0.245,0.585c-0.163,0.164-0.359,0.246-0.589,0.246c-0.225,0-0.419-0.082-0.583-0.246
			c-0.163-0.163-0.244-0.358-0.244-0.585c0-0.23,0.082-0.428,0.244-0.592C104.85,154.989,105.044,154.907,105.269,154.907z
			 M104.767,158.142h1.011v7.856h-1.011V158.142z"/>
		<path fill="#898C51" d="M111.974,158.142h1.011v1.408c0.404-0.539,0.852-0.942,1.343-1.209c0.491-0.268,1.025-0.401,1.604-0.401
			c0.587,0,1.108,0.149,1.562,0.448c0.455,0.298,0.791,0.7,1.008,1.205c0.217,0.506,0.325,1.293,0.325,2.361v4.044h-1.012v-3.748
			c0-0.904-0.037-1.509-0.112-1.812c-0.117-0.521-0.342-0.911-0.674-1.174s-0.766-0.394-1.3-0.394c-0.611,0-1.159,0.202-1.643,0.606
			c-0.484,0.404-0.804,0.905-0.957,1.502c-0.097,0.39-0.145,1.103-0.145,2.138v2.881h-1.011V158.142z"/>
		<path fill="#898C51" d="M131.859,158.142h1.011v6.261c0,1.103-0.096,1.908-0.289,2.419c-0.265,0.722-0.724,1.278-1.379,1.668
			c-0.654,0.39-1.441,0.585-2.361,0.585c-0.674,0-1.279-0.096-1.815-0.286c-0.537-0.19-0.974-0.446-1.311-0.768
			s-0.647-0.791-0.932-1.409h1.098c0.299,0.521,0.685,0.905,1.156,1.156c0.473,0.25,1.059,0.375,1.757,0.375
			c0.689,0,1.271-0.128,1.746-0.385s0.813-0.58,1.016-0.968c0.202-0.389,0.304-1.017,0.304-1.882v-0.405
			c-0.381,0.481-0.846,0.852-1.395,1.108c-0.55,0.258-1.133,0.387-1.75,0.387c-0.723,0-1.402-0.18-2.038-0.538
			s-1.128-0.841-1.475-1.447s-0.521-1.273-0.521-2.001c0-0.727,0.181-1.404,0.543-2.032c0.361-0.628,0.861-1.125,1.499-1.491
			c0.639-0.365,1.312-0.549,2.021-0.549c0.588,0,1.136,0.122,1.645,0.365c0.508,0.243,0.998,0.644,1.471,1.202V158.142z
			 M128.877,158.914c-0.572,0-1.104,0.139-1.596,0.416c-0.491,0.276-0.876,0.659-1.155,1.147c-0.279,0.489-0.419,1.018-0.419,1.585
			c0,0.862,0.289,1.574,0.867,2.138c0.577,0.563,1.326,0.845,2.245,0.845c0.929,0,1.677-0.279,2.242-0.838
			c0.565-0.558,0.849-1.292,0.849-2.202c0-0.592-0.13-1.12-0.39-1.585c-0.261-0.465-0.629-0.831-1.105-1.101
			S129.426,158.914,128.877,158.914z"/>
		<path fill="#898C51" d="M143.08,159.001l-0.649,0.672c-0.541-0.524-1.069-0.787-1.586-0.787c-0.328,0-0.609,0.108-0.844,0.325
			c-0.233,0.216-0.351,0.469-0.351,0.758c0,0.255,0.097,0.498,0.289,0.729c0.193,0.235,0.599,0.513,1.216,0.83
			c0.753,0.39,1.264,0.766,1.534,1.127c0.266,0.365,0.397,0.777,0.397,1.234c0,0.646-0.227,1.191-0.68,1.639
			c-0.453,0.448-1.02,0.672-1.699,0.672c-0.453,0-0.886-0.099-1.298-0.296s-0.754-0.47-1.023-0.816l0.636-0.722
			c0.516,0.582,1.063,0.874,1.643,0.874c0.405,0,0.75-0.13,1.035-0.391c0.284-0.26,0.427-0.565,0.427-0.917
			c0-0.288-0.094-0.546-0.282-0.772c-0.188-0.222-0.612-0.5-1.273-0.838c-0.709-0.365-1.191-0.727-1.447-1.083
			c-0.256-0.355-0.384-0.763-0.384-1.22c0-0.597,0.204-1.093,0.611-1.487c0.407-0.396,0.922-0.593,1.544-0.593
			C141.619,157.939,142.348,158.294,143.08,159.001z"/>
	</g>
</g>
<g>
	<path fill="#D9D5CC" d="M21.737,63.079c0,0,3-15.859,13-18.363S30.737,59.947,21.737,63.079z"/>
	<path fill="#7C405C" d="M39.713,40.745c0,0,6.478-14.783,16.785-14.983S49.186,39.709,39.713,40.745z"/>
	<path fill="#898C51" d="M21.265,44.368c0,0,3.82-15.682,13.936-17.663S30.416,41.708,21.265,44.368z"/>
	<path fill="#ABA69C" d="M5.915,68.038c0,0,1.309-16.087,10.988-19.633S14.533,63.973,5.915,68.038z"/>
	<path fill="#D9D5CC" d="M59.473,24.711c0,0,10.846-11.953,20.681-8.861S68.783,26.744,59.473,24.711z"/>
	<path fill="#7C405C" d="M86.471,15.065c0,0,13.249-9.218,22.141-4.001S95.089,19.133,86.471,15.065z"/>
	<path fill="#898C51" d="M68.85,8.512c0,0,11.453-11.373,21.113-7.775S78.042,11.026,68.85,8.512z"/>
	<path fill="#ABA69C" d="M43.392,20.669c0,0,9.523-13.031,19.629-10.996S52.865,21.708,43.392,20.669z"/>
	<path fill="#D9D5CC" d="M193.995,21.383"/>
	<path fill="#D9D5CC" d="M115.579,14.307c0,0,15.693-3.772,22.081,4.319C144.048,26.717,122.129,21.229,115.579,14.307z"/>
	<path fill="#7C405C" d="M143.323,21.533c0,0,16.139-0.159,20.551,9.158C168.286,40.008,148.155,29.747,143.323,21.533z"/>
	<path fill="#898C51" d="M132.448,6.198c0,0,15.868-2.952,21.826,5.46C160.233,20.07,138.63,13.451,132.448,6.198z"/>
	<path fill="#ABA69C" d="M104.564,1.913c0,0,15.207-5.408,22.413,1.963C134.184,11.248,111.808,8.104,104.564,1.913z"/>
	<path fill="#D9D5CC" d="M166.054,32.974c0,0,15.351,4.986,16.568,15.223S168.02,42.298,166.054,32.974z"/>
	<path fill="#7C405C" d="M185.93,53.635c0,0,13.843,8.299,12.735,18.548S185.757,63.163,185.93,53.635z"/>
	<path fill="#898C51" d="M184.674,34.877c0,0,15.071,5.777,15.754,16.063S186.153,44.291,184.674,34.877z"/>
	<path fill="#ABA69C" d="M163.141,16.65c0,0,15.791,3.337,18.082,13.388S166.081,25.715,163.141,16.65z"/>
	<path fill="#D9D5CC" d="M226.27,90.765"/>
	<path fill="#D9D5CC" d="M198.154,79.604c0,0,7.534,14.274,1.273,22.463S193.066,87.662,198.154,79.604z"/>
	<path fill="#7C405C" d="M198.009,108.273c0,0,4.144,15.599-3.794,22.177C186.278,137.028,191.245,114.985,198.009,108.273z"/>
	<path fill="#898C51" d="M210.181,93.945c0,0,6.782,14.646,0.104,22.499C203.607,124.297,204.681,101.728,210.181,93.945z"/>
	<path fill="#ABA69C" d="M207.441,65.868c0,0,8.999,13.398,3.638,22.203C205.717,96.875,203.232,74.417,207.441,65.868z"/>
	<path fill="#D9D5CC" d="M211.083,161.687"/>
	<path fill="#D9D5CC" d="M192.721,137.647c0,0-0.887,16.116-10.471,19.914C172.667,161.36,184.212,141.936,192.721,137.647z"/>
	<path fill="#7C405C" d="M177.841,162.152c0,0-4.476,15.507-14.667,17.061C152.983,180.768,168.587,164.426,177.841,162.152z"/>
	<path fill="#898C51" d="M195.652,156.133c0,0-1.723,16.048-11.491,19.343C174.393,178.772,186.931,159.974,195.652,156.133z"/>
	<path fill="#ABA69C" d="M207.754,130.649c0,0,0.82,16.119-8.309,20.909S199.745,135.813,207.754,130.649z"/>
	<path fill="#D9D5CC" d="M159.346,213.259"/>
	<path fill="#D9D5CC" d="M157.268,183.081c0,0-9.62,12.96-19.71,10.85C127.467,191.82,147.803,181.972,157.268,183.081z"/>
	<path fill="#7C405C" d="M131.348,195.332c0,0-12.279,10.475-21.64,6.157C100.347,197.171,122.373,192.13,131.348,195.332z"/>
	<path fill="#898C51" d="M149.528,200.122c0,0-10.28,12.443-20.247,9.811S140.134,198.523,149.528,200.122z"/>
	<path fill="#ABA69C" d="M173.669,185.524c0,0-8.197,13.904-18.454,12.871C144.957,197.361,164.14,185.42,173.669,185.524z"/>
	<path fill="#D9D5CC" d="M85.777,226.346"/>
	<path fill="#D9D5CC" d="M101.821,200.702c0,0-15.398,4.839-22.325-2.796S94.813,194.245,101.821,200.702z"/>
	<path fill="#7C405C" d="M73.648,195.393c0,0-16.09,1.265-21.13-7.728C47.478,178.671,68.265,187.529,73.648,195.393z"/>
	<path fill="#898C51" d="M85.548,209.947c0,0-15.628,4.032-22.149-3.952C56.877,198.011,78.884,203.135,85.548,209.947z"/>
	<path fill="#ABA69C" d="M113.66,212.312c0,0-14.801,6.438-22.495-0.423C83.47,205.028,106.008,206.631,113.66,212.312z"/>
	<path fill="#D9D5CC" d="M21.079,196.886"/>
	<path fill="#D9D5CC" d="M48.532,184.183c0,0-15.538-4.366-17.165-14.545C29.74,159.458,46.193,174.945,48.532,184.183z"/>
	<path fill="#7C405C" d="M29.31,164.673c0,0-13.133-9.382-11.207-19.509S30.246,155.189,29.31,164.673z"/>
	<path fill="#898C51" d="M29.059,183.471c0,0-14.559-6.966-14.416-17.274C14.786,155.889,28.339,173.969,29.059,183.471z"/>
	<path fill="#ABA69C" d="M52.098,200.377c0,0-15.913-2.7-18.605-12.651S48.797,191.437,52.098,200.377z"/>
	<path fill="#D9D5CC" d="M17.689,140.378c0,0-8.84-13.504-3.374-22.245S21.998,131.879,17.689,140.378z"/>
	<path fill="#7C405C" d="M15.144,111.822c0,0-5.589-15.142,1.697-22.435S21.249,104.505,15.144,111.822z"/>
	<path fill="#898C51" d="M4.369,127.229c0,0-8.126-13.945-2.214-22.39S9.115,118.965,4.369,127.229z"/>
	<path fill="#898C51" d="M14.555,85.043c0,0-1.349-16.084,7.617-21.17S22.39,79.618,14.555,85.043z"/>
	<path fill="#D9D5CC" d="M3.063,97.019c0,0-4.114-15.607,3.836-22.17C14.849,68.286,9.84,90.319,3.063,97.019z"/>
	<path fill="#ABA69C" d="M9.731,154.926c0,0-10.217-12.495-5.704-21.764S13.12,146.019,9.731,154.926z"/>
</g>
</svg>
