<?xml version="1.0" encoding="utf-8"?>
<!-- Generator: Adobe Illustrator 17.1.0, SVG Export Plug-In . SVG Version: 6.00 Build 0)  -->
<!DOCTYPE svg PUBLIC "-//W3C//DTD SVG 1.1//EN" "http://www.w3.org/Graphics/SVG/1.1/DTD/svg11.dtd">
<svg version="1.1" id="Layer_1" xmlns="http://www.w3.org/2000/svg" xmlns:xlink="http://www.w3.org/1999/xlink" x="0px" y="0px"
	 viewBox="0 0 226.27 226.346" enable-background="new 0 0 226.27 226.346" xml:space="preserve">
<g>
	<g>
		<path fill="#FFFFFF" d="M98.269,99.506c-2.993,2.993-6.485,4.811-10.477,5.452c-1.996,0.356-3.813,0.535-5.452,0.535
			c-4.206,0-7.448-0.712-9.729-2.139c-3.493-2.28-5.06-5.808-4.704-10.584c0.072-1.639,0.997-5.487,2.779-11.546
			c0.855-2.994,1.497-5.273,1.925-6.842c0.428-1.567,0.677-2.422,0.748-2.565c0.07-0.498-0.25-0.855-0.962-1.069
			c-0.571,0-1.194-0.017-1.871-0.053c-0.678-0.035-1.443-0.089-2.299-0.161c-0.641-0.142-0.783-0.641-0.427-1.497
			c0.144-0.428,0.304-0.925,0.48-1.497c0.178-0.57,0.409-1.246,0.695-2.031c0.498-0.712,1.246-1.069,2.245-1.069h1.71
			c0.498,0.072,0.855,0.107,1.069,0.107c0.284,0,0.498,0,0.642,0c0.355,0,0.783-0.355,1.283-1.069
			c0.854-3.063,1.78-6.254,2.779-9.568c0.997-3.314,2.066-6.824,3.207-10.53c0.284-0.712,1.032-1.246,2.245-1.604
			c2.636-0.712,5.309-0.712,8.018,0c1.069,0.357,1.46,1.426,1.177,3.207c-0.999,2.994-1.996,6.04-2.994,9.141
			c-0.998,3.1-1.996,6.291-2.993,9.568c-0.144,0.641,0.143,1.069,0.855,1.283c0.855,0,1.817,0.019,2.887,0.053
			c1.068,0.037,2.208,0.09,3.421,0.161c0.428,0.072,0.712,0.535,0.855,1.39c0.142,0.999-0.107,2.21-0.749,3.635
			c-0.214,0.571-0.678,0.892-1.39,0.962c0.284-0.07-2.138-0.107-7.27-0.107c-0.571,0-0.999,0.321-1.283,0.962
			c-0.785,2.852-1.656,5.917-2.619,9.194c-0.962,3.279-2.015,6.772-3.153,10.477c-0.714,2.352-0.465,4.134,0.748,5.345
			c1.711,1.71,3.991,2.566,6.842,2.566c1.354,0,3.101-0.642,5.239-1.924c1.211-0.712,2.314-1.479,3.313-2.299
			c0.997-0.818,1.853-1.727,2.566-2.726c0.355-0.428,0.641-0.321,0.854,0.321c0.498,1.213,0.677,2.603,0.535,4.169
			C98.874,98.367,98.625,99.15,98.269,99.506z"/>
	</g>
	<g>
		<path fill="#FFFFFF" d="M145.698,110.699c-2.994,2.993-6.486,4.811-10.478,5.452c-0.785,0.07-1.729,0.177-2.833,0.32
			c-1.105,0.143-2.405,0.284-3.902,0.428c-4.634,0.642-7.376,1.994-8.231,4.062c-3.493,8.195-6.7,13.471-9.622,15.822
			c-2.709,2.422-5.203,3.635-7.483,3.635c-1.568,0-2.887-0.464-3.955-1.39c-1.069-0.927-1.604-2.21-1.604-3.849
			c0-1.354,0.409-2.833,1.229-4.437c0.818-1.604,2.333-3.475,4.543-5.612c1.925-1.854,3.777-3.244,5.56-4.17
			c0.497-0.285,0.997-0.606,1.496-0.962c0.926-1.996,1.871-4.026,2.833-6.094c0.963-2.066,1.941-4.239,2.94-6.521
			c0.355-0.569,0.249-0.855-0.32-0.855c-0.358,0-0.679,0.251-0.963,0.748c-0.999,1.711-3.172,3.707-6.521,5.987
			c-4.206,2.779-7.911,4.025-11.118,3.742c-6.2-0.5-9.301-4.312-9.301-11.439c0-5.202,1.248-10.12,3.742-14.753
			c2.493-4.632,5.986-8.553,10.477-11.76c4.561-3.208,9.122-4.811,13.685-4.811c2.921,0,5.629,0.749,8.124,2.245
			c0.284,0.428,0.642,0.642,1.069,0.642c0.783,0,1.532-0.784,2.245-2.352c0.284-0.498,1.032-1.032,2.245-1.604
			c0.498-0.142,1.532-0.177,3.101-0.107c1.566,0.072,2.673,0.25,3.314,0.534c1.211,0.571,1.817,1.427,1.817,2.566
			c0,0.5-2.104,6.237-6.308,17.212c-3.779,9.766-6.024,15.539-6.735,17.32c-0.072,0.144-0.107,0.25-0.107,0.32
			c0,0.072-0.036,0.144-0.106,0.214c-0.144,0.357-0.144,0.571,0,0.642c0.284,0,0.534-0.035,0.748-0.107
			c2.353-0.497,5.238-0.818,8.66-0.962c1.566,0,3.598-0.818,6.093-2.459c2.066-1.425,3.742-2.921,5.025-4.49
			c0.355-0.428,0.642-0.321,0.855,0.321c0.497,1.213,0.676,2.603,0.534,4.169C146.303,109.56,146.054,110.343,145.698,110.699z
			 M121.857,82.421c-0.927-0.462-1.924-0.695-2.993-0.695c-1.283,0-2.619,0.321-4.009,0.962c-1.391,0.641-2.78,1.497-4.17,2.565
			c-1.39,1.069-2.726,2.352-4.009,3.849c-1.283,1.497-2.459,3.1-3.528,4.811c-2.779,4.49-4.169,8.125-4.169,10.905
			c0,3.064,1.246,4.597,3.741,4.597c2.85,0,7.126-3.956,12.829-11.867c3.136-4.418,5.487-8.623,7.056-12.615
			C123.033,83.723,122.783,82.886,121.857,82.421z"/>
	</g>
</g>
<g>
	<g>
		<path fill="#FFFFFF" d="M75.244,162.658l-0.559,0.578c-0.465-0.451-0.92-0.677-1.364-0.677c-0.283,0-0.524,0.093-0.726,0.279
			c-0.202,0.187-0.302,0.403-0.302,0.652c0,0.22,0.083,0.429,0.249,0.627c0.166,0.203,0.515,0.441,1.046,0.715
			c0.647,0.336,1.087,0.658,1.32,0.969c0.229,0.315,0.342,0.669,0.342,1.062c0,0.556-0.195,1.025-0.585,1.41
			c-0.39,0.386-0.877,0.578-1.462,0.578c-0.39,0-0.762-0.085-1.117-0.255c-0.355-0.17-0.648-0.403-0.881-0.702l0.547-0.621
			c0.444,0.501,0.916,0.752,1.414,0.752c0.349,0,0.646-0.112,0.891-0.336c0.245-0.224,0.367-0.486,0.367-0.788
			c0-0.249-0.081-0.471-0.243-0.665c-0.162-0.19-0.527-0.431-1.096-0.721c-0.61-0.314-1.025-0.626-1.245-0.932
			c-0.22-0.307-0.33-0.657-0.33-1.051c0-0.513,0.175-0.939,0.526-1.279s0.793-0.51,1.329-0.51
			C73.986,161.745,74.613,162.05,75.244,162.658z"/>
		<path fill="#FFFFFF" d="M81.065,159.409h0.87v2.51h1.379v0.752h-1.379v6.008h-0.87v-6.008h-1.187v-0.752h1.187V159.409z"/>
		<path fill="#FFFFFF" d="M87.414,161.919h0.919l2.323,5.205l2.256-5.205h0.926l-4.032,9.232h-0.919l1.301-2.984L87.414,161.919z"/>
		<path fill="#FFFFFF" d="M98.355,159.31h0.87v9.369h-0.87V159.31z"/>
		<path fill="#FFFFFF" d="M104.857,159.136c0.198,0,0.367,0.07,0.507,0.211c0.14,0.142,0.21,0.312,0.21,0.51
			c0,0.195-0.07,0.362-0.21,0.503c-0.14,0.142-0.31,0.212-0.507,0.212c-0.194,0-0.361-0.07-0.501-0.212
			c-0.14-0.141-0.21-0.308-0.21-0.503c0-0.198,0.07-0.368,0.21-0.51C104.496,159.206,104.663,159.136,104.857,159.136z
			 M104.425,161.919h0.87v6.76h-0.87V161.919z"/>
		<path fill="#FFFFFF" d="M110.625,161.919h0.87v1.212c0.348-0.464,0.732-0.811,1.154-1.041c0.424-0.229,0.883-0.345,1.381-0.345
			c0.504,0,0.953,0.129,1.344,0.386c0.393,0.257,0.682,0.603,0.867,1.037s0.279,1.112,0.279,2.031v3.479h-0.869v-3.225
			c0-0.778-0.033-1.298-0.098-1.56c-0.1-0.447-0.293-0.783-0.58-1.009c-0.285-0.227-0.658-0.339-1.117-0.339
			c-0.527,0-0.998,0.174-1.414,0.521c-0.416,0.349-0.691,0.779-0.824,1.293c-0.082,0.335-0.123,0.948-0.123,1.839v2.479h-0.87
			V161.919z"/>
		<path fill="#FFFFFF" d="M127.735,161.919h0.87v5.387c0,0.948-0.083,1.643-0.249,2.081c-0.228,0.621-0.623,1.1-1.187,1.436
			c-0.563,0.335-1.24,0.503-2.031,0.503c-0.58,0-1.102-0.082-1.562-0.246c-0.462-0.164-0.838-0.384-1.128-0.66
			s-0.558-0.681-0.802-1.212h0.944c0.257,0.447,0.589,0.778,0.995,0.994c0.406,0.215,0.91,0.322,1.512,0.322
			c0.593,0,1.094-0.11,1.502-0.331c0.409-0.221,0.7-0.498,0.874-0.832c0.175-0.335,0.262-0.875,0.262-1.62v-0.348
			c-0.328,0.414-0.728,0.732-1.2,0.954s-0.975,0.332-1.505,0.332c-0.622,0-1.207-0.154-1.754-0.463
			c-0.548-0.309-0.971-0.724-1.269-1.246c-0.299-0.521-0.448-1.095-0.448-1.721c0-0.625,0.155-1.208,0.467-1.749
			c0.311-0.54,0.741-0.968,1.29-1.282c0.55-0.315,1.129-0.473,1.738-0.473c0.506,0,0.978,0.104,1.415,0.313
			c0.438,0.21,0.859,0.555,1.266,1.035V161.919z M125.169,162.584c-0.492,0-0.95,0.119-1.373,0.357
			c-0.422,0.238-0.754,0.567-0.993,0.987c-0.24,0.421-0.36,0.875-0.36,1.364c0,0.741,0.248,1.354,0.745,1.839
			s1.141,0.727,1.933,0.727c0.799,0,1.441-0.24,1.929-0.721c0.486-0.48,0.729-1.112,0.729-1.895c0-0.51-0.111-0.964-0.335-1.364
			c-0.224-0.399-0.541-0.715-0.95-0.947C126.083,162.7,125.642,162.584,125.169,162.584z"/>
		<path fill="#FFFFFF" d="M137.39,162.658l-0.559,0.578c-0.466-0.451-0.92-0.677-1.364-0.677c-0.282,0-0.524,0.093-0.726,0.279
			s-0.302,0.403-0.302,0.652c0,0.22,0.082,0.429,0.248,0.627c0.166,0.203,0.516,0.441,1.047,0.715
			c0.647,0.336,1.087,0.658,1.319,0.969c0.229,0.315,0.343,0.669,0.343,1.062c0,0.556-0.195,1.025-0.585,1.41
			c-0.391,0.386-0.878,0.578-1.462,0.578c-0.391,0-0.763-0.085-1.117-0.255s-0.648-0.403-0.881-0.702l0.547-0.621
			c0.444,0.501,0.915,0.752,1.414,0.752c0.349,0,0.645-0.112,0.89-0.336s0.368-0.486,0.368-0.788c0-0.249-0.081-0.471-0.243-0.665
			c-0.162-0.19-0.527-0.431-1.096-0.721c-0.61-0.314-1.025-0.626-1.245-0.932c-0.22-0.307-0.33-0.657-0.33-1.051
			c0-0.513,0.175-0.939,0.525-1.279s0.794-0.51,1.329-0.51C136.133,161.745,136.76,162.05,137.39,162.658z"/>
	</g>
</g>
<g>
	<path fill="#FFFFFF" d="M56.232,142.314h1.052v3.037h1.669v0.91h-1.669v7.271h-1.052v-7.271h-1.436v-0.91h1.436V142.314z"/>
	<path fill="#FFFFFF" d="M68.683,145.351v8.181h-1.038v-1.406c-0.441,0.537-0.936,0.94-1.485,1.211s-1.149,0.406-1.801,0.406
		c-1.158,0-2.146-0.42-2.966-1.26c-0.819-0.84-1.229-1.861-1.229-3.063c0-1.179,0.414-2.186,1.24-3.022
		c0.827-0.838,1.822-1.256,2.985-1.256c0.672,0,1.28,0.143,1.824,0.429c0.543,0.285,1.021,0.714,1.432,1.285v-1.504H68.683z
		 M64.476,146.155c-0.586,0-1.127,0.145-1.623,0.432c-0.496,0.288-0.89,0.692-1.183,1.213c-0.293,0.521-0.439,1.072-0.439,1.652
		c0,0.576,0.148,1.127,0.443,1.652c0.295,0.525,0.692,0.936,1.19,1.228c0.498,0.293,1.033,0.439,1.604,0.439
		c0.576,0,1.122-0.145,1.637-0.436c0.516-0.29,0.913-0.683,1.19-1.179s0.417-1.054,0.417-1.675c0-0.946-0.312-1.737-0.935-2.373
		C66.154,146.474,65.387,146.155,64.476,146.155z"/>
	<path fill="#FFFFFF" d="M71.051,145.351h1.053v1.467c0.421-0.562,0.887-0.981,1.398-1.26s1.068-0.417,1.669-0.417
		c0.612,0,1.154,0.155,1.628,0.466s0.823,0.729,1.049,1.256s0.338,1.346,0.338,2.458v4.211h-1.053v-3.902
		c0-0.942-0.039-1.571-0.117-1.887c-0.122-0.542-0.356-0.949-0.702-1.222c-0.346-0.273-0.797-0.41-1.354-0.41
		c-0.637,0-1.207,0.211-1.711,0.632s-0.836,0.942-0.996,1.563c-0.101,0.406-0.15,1.148-0.15,2.226v3h-1.053V145.351z"/>
	<path fill="#FFFFFF" d="M79.563,145.351h1.112l2.812,6.3l2.73-6.3h1.12l-4.879,11.173h-1.112l1.575-3.611L79.563,145.351z"/>
	<path fill="#FFFFFF" d="M96.848,145.351v8.181H95.81v-1.406c-0.441,0.537-0.936,0.94-1.485,1.211s-1.149,0.406-1.801,0.406
		c-1.158,0-2.146-0.42-2.966-1.26c-0.819-0.84-1.229-1.861-1.229-3.063c0-1.179,0.414-2.186,1.24-3.022
		c0.827-0.838,1.822-1.256,2.985-1.256c0.672,0,1.28,0.143,1.824,0.429c0.543,0.285,1.021,0.714,1.432,1.285v-1.504H96.848z
		 M92.641,146.155c-0.586,0-1.127,0.145-1.623,0.432c-0.496,0.288-0.89,0.692-1.183,1.213c-0.293,0.521-0.439,1.072-0.439,1.652
		c0,0.576,0.148,1.127,0.443,1.652c0.295,0.525,0.692,0.936,1.19,1.228c0.498,0.293,1.033,0.439,1.604,0.439
		c0.576,0,1.122-0.145,1.637-0.436c0.516-0.29,0.913-0.683,1.19-1.179s0.417-1.054,0.417-1.675c0-0.946-0.312-1.737-0.935-2.373
		C94.319,146.474,93.552,146.155,92.641,146.155z"/>
	<path fill="#FFFFFF" d="M106.269,145.351h1.053v6.519c0,1.148-0.101,1.988-0.301,2.52c-0.276,0.752-0.755,1.33-1.437,1.736
		s-1.501,0.609-2.458,0.609c-0.702,0-1.332-0.1-1.891-0.298c-0.559-0.199-1.014-0.465-1.365-0.8
		c-0.351-0.334-0.674-0.823-0.97-1.467h1.143c0.311,0.542,0.712,0.942,1.205,1.203c0.492,0.261,1.102,0.392,1.829,0.392
		c0.717,0,1.324-0.134,1.818-0.401c0.495-0.268,0.847-0.604,1.058-1.008s0.316-1.058,0.316-1.96v-0.421
		c-0.396,0.502-0.881,0.887-1.453,1.154c-0.572,0.269-1.179,0.402-1.821,0.402c-0.753,0-1.46-0.187-2.123-0.561
		c-0.663-0.373-1.174-0.876-1.536-1.507c-0.361-0.632-0.542-1.326-0.542-2.083s0.188-1.462,0.564-2.116s0.897-1.172,1.562-1.553
		c0.665-0.381,1.366-0.571,2.104-0.571c0.612,0,1.183,0.126,1.712,0.38c0.529,0.253,1.04,0.67,1.532,1.251V145.351z
		 M103.163,146.155c-0.597,0-1.15,0.145-1.662,0.433s-0.912,0.687-1.203,1.195c-0.291,0.509-0.436,1.059-0.436,1.65
		c0,0.897,0.301,1.639,0.902,2.226c0.602,0.586,1.381,0.88,2.338,0.88c0.967,0,1.746-0.291,2.334-0.872
		c0.589-0.582,0.884-1.347,0.884-2.294c0-0.616-0.136-1.166-0.406-1.65c-0.271-0.483-0.654-0.865-1.15-1.146
		C104.269,146.296,103.734,146.155,103.163,146.155z"/>
	<path fill="#FFFFFF" d="M113.449,145.141c1.261,0,2.305,0.456,3.134,1.368c0.753,0.832,1.13,1.817,1.13,2.955
		c0,1.143-0.398,2.142-1.194,2.996s-1.819,1.282-3.069,1.282c-1.255,0-2.281-0.428-3.077-1.282s-1.193-1.854-1.193-2.996
		c0-1.133,0.377-2.115,1.13-2.947C111.137,145.599,112.184,145.141,113.449,145.141z M113.445,146.171
		c-0.875,0-1.627,0.323-2.256,0.97s-0.943,1.429-0.943,2.346c0,0.592,0.144,1.143,0.431,1.654c0.286,0.511,0.674,0.905,1.162,1.184
		c0.487,0.278,1.023,0.418,1.606,0.418c0.584,0,1.119-0.14,1.607-0.418s0.875-0.673,1.162-1.184c0.286-0.512,0.43-1.062,0.43-1.654
		c0-0.917-0.315-1.699-0.946-2.346C115.066,146.494,114.315,146.171,113.445,146.171z"/>
	<path fill="#FFFFFF" d="M118.885,145.351h1.12l2.746,5.963l2.713-5.963h1.128l-3.745,8.181h-0.195L118.885,145.351z"/>
	<path fill="#FFFFFF" d="M135.08,150.817l0.888,0.466c-0.291,0.571-0.627,1.032-1.009,1.384c-0.381,0.351-0.81,0.617-1.286,0.801
		c-0.478,0.183-1.017,0.274-1.618,0.274c-1.335,0-2.378-0.438-3.131-1.312s-1.129-1.863-1.129-2.966
		c0-1.038,0.318-1.963,0.956-2.774c0.808-1.033,1.889-1.549,3.243-1.549c1.395,0,2.509,0.528,3.341,1.586
		c0.593,0.747,0.894,1.68,0.903,2.797h-7.36c0.02,0.95,0.323,1.729,0.91,2.337c0.588,0.607,1.312,0.911,2.176,0.911
		c0.417,0,0.822-0.072,1.216-0.217s0.729-0.337,1.005-0.577C134.461,151.738,134.76,151.352,135.08,150.817z M135.08,148.614
		c-0.14-0.562-0.345-1.01-0.613-1.346s-0.623-0.606-1.065-0.812c-0.441-0.205-0.905-0.309-1.393-0.309
		c-0.803,0-1.493,0.259-2.07,0.774c-0.421,0.376-0.74,0.94-0.956,1.692H135.08z"/>
	<path fill="#FFFFFF" d="M146.351,145.351v8.181h-1.038v-1.406c-0.44,0.537-0.936,0.94-1.484,1.211s-1.149,0.406-1.801,0.406
		c-1.158,0-2.146-0.42-2.966-1.26c-0.82-0.84-1.229-1.861-1.229-3.063c0-1.179,0.413-2.186,1.24-3.022
		c0.827-0.838,1.822-1.256,2.985-1.256c0.671,0,1.279,0.143,1.823,0.429c0.544,0.285,1.021,0.714,1.432,1.285v-1.504H146.351z
		 M142.144,146.155c-0.586,0-1.126,0.145-1.622,0.432c-0.495,0.288-0.89,0.692-1.183,1.213c-0.293,0.521-0.439,1.072-0.439,1.652
		c0,0.576,0.147,1.127,0.443,1.652c0.295,0.525,0.692,0.936,1.19,1.228c0.498,0.293,1.032,0.439,1.604,0.439
		c0.575,0,1.121-0.145,1.637-0.436c0.516-0.29,0.912-0.683,1.19-1.179c0.277-0.496,0.417-1.054,0.417-1.675
		c0-0.946-0.312-1.737-0.936-2.373C143.822,146.474,143.055,146.155,142.144,146.155z"/>
	<path fill="#FFFFFF" d="M152.831,146.246l-0.676,0.699c-0.563-0.547-1.113-0.82-1.651-0.82c-0.342,0-0.635,0.113-0.878,0.339
		c-0.244,0.226-0.366,0.488-0.366,0.789c0,0.266,0.101,0.519,0.302,0.76c0.201,0.245,0.623,0.533,1.266,0.864
		c0.784,0.406,1.316,0.797,1.598,1.173c0.276,0.381,0.414,0.81,0.414,1.286c0,0.672-0.235,1.24-0.708,1.707
		c-0.472,0.466-1.062,0.699-1.77,0.699c-0.472,0-0.922-0.104-1.352-0.309c-0.429-0.205-0.784-0.489-1.065-0.85l0.662-0.752
		c0.537,0.606,1.107,0.91,1.71,0.91c0.422,0,0.781-0.136,1.078-0.406c0.296-0.271,0.444-0.589,0.444-0.955
		c0-0.301-0.098-0.568-0.294-0.805c-0.195-0.23-0.638-0.521-1.326-0.872c-0.738-0.381-1.24-0.757-1.507-1.128
		c-0.266-0.371-0.399-0.794-0.399-1.271c0-0.621,0.212-1.138,0.637-1.549c0.424-0.411,0.96-0.616,1.607-0.616
		C151.311,145.141,152.068,145.509,152.831,146.246z"/>
</g>
<g>
	<path fill="#FFFFFF" d="M21.737,63.079c0,0,3-15.859,13-18.363S30.737,59.947,21.737,63.079z"/>
	<path fill="#FFFFFF" d="M39.713,40.745c0,0,6.478-14.783,16.785-14.983S49.186,39.709,39.713,40.745z"/>
	<path fill="#FFFFFF" d="M21.265,44.368c0,0,3.82-15.682,13.936-17.663S30.416,41.708,21.265,44.368z"/>
	<path fill="#FFFFFF" d="M5.915,68.038c0,0,1.309-16.087,10.988-19.633S14.533,63.973,5.915,68.038z"/>
	<path fill="#FFFFFF" d="M59.473,24.711c0,0,10.846-11.952,20.681-8.861S68.783,26.744,59.473,24.711z"/>
	<path fill="#FFFFFF" d="M86.471,15.065c0,0,13.249-9.218,22.141-4.001S95.089,19.133,86.471,15.065z"/>
	<path fill="#FFFFFF" d="M68.85,8.512c0,0,11.453-11.373,21.113-7.775S78.042,11.026,68.85,8.512z"/>
	<path fill="#FFFFFF" d="M43.392,20.669c0,0,9.523-13.031,19.629-10.996S52.865,21.708,43.392,20.669z"/>
	<path fill="#FFFFFF" d="M193.995,21.383"/>
	<path fill="#FFFFFF" d="M115.579,14.307c0,0,15.693-3.772,22.081,4.319C144.048,26.717,122.129,21.229,115.579,14.307z"/>
	<path fill="#FFFFFF" d="M143.323,21.533c0,0,16.139-0.159,20.551,9.158C168.286,40.008,148.155,29.747,143.323,21.533z"/>
	<path fill="#FFFFFF" d="M132.448,6.198c0,0,15.868-2.952,21.826,5.46C160.233,20.07,138.63,13.451,132.448,6.198z"/>
	<path fill="#FFFFFF" d="M104.564,1.913c0,0,15.207-5.408,22.413,1.963C134.184,11.248,111.808,8.104,104.564,1.913z"/>
	<path fill="#FFFFFF" d="M166.054,32.974c0,0,15.351,4.986,16.568,15.223S168.02,42.298,166.054,32.974z"/>
	<path fill="#FFFFFF" d="M185.93,53.635c0,0,13.843,8.299,12.735,18.548S185.757,63.163,185.93,53.635z"/>
	<path fill="#FFFFFF" d="M184.674,34.877c0,0,15.071,5.777,15.754,16.063S186.153,44.291,184.674,34.877z"/>
	<path fill="#FFFFFF" d="M163.141,16.65c0,0,15.791,3.337,18.082,13.388S166.081,25.715,163.141,16.65z"/>
	<path fill="#FFFFFF" d="M226.27,90.765"/>
	<path fill="#FFFFFF" d="M198.154,79.604c0,0,7.534,14.274,1.273,22.463S193.066,87.662,198.154,79.604z"/>
	<path fill="#FFFFFF" d="M198.009,108.273c0,0,4.144,15.599-3.794,22.177C186.278,137.028,191.245,114.985,198.009,108.273z"/>
	<path fill="#FFFFFF" d="M210.181,93.945c0,0,6.782,14.646,0.104,22.499C203.607,124.297,204.681,101.728,210.181,93.945z"/>
	<path fill="#FFFFFF" d="M207.441,65.868c0,0,8.999,13.398,3.638,22.203C205.717,96.875,203.232,74.417,207.441,65.868z"/>
	<path fill="#FFFFFF" d="M211.083,161.687"/>
	<path fill="#FFFFFF" d="M192.721,137.647c0,0-0.887,16.116-10.471,19.914C172.667,161.36,184.212,141.936,192.721,137.647z"/>
	<path fill="#FFFFFF" d="M177.841,162.152c0,0-4.476,15.507-14.667,17.061C152.983,180.768,168.587,164.426,177.841,162.152z"/>
	<path fill="#FFFFFF" d="M195.652,156.133c0,0-1.723,16.048-11.491,19.343C174.393,178.772,186.931,159.974,195.652,156.133z"/>
	<path fill="#FFFFFF" d="M207.754,130.649c0,0,0.82,16.119-8.309,20.909S199.745,135.813,207.754,130.649z"/>
	<path fill="#FFFFFF" d="M159.346,213.259"/>
	<path fill="#FFFFFF" d="M157.268,183.081c0,0-9.62,12.96-19.71,10.85C127.467,191.82,147.803,181.972,157.268,183.081z"/>
	<path fill="#FFFFFF" d="M131.348,195.332c0,0-12.279,10.475-21.64,6.157C100.347,197.171,122.373,192.13,131.348,195.332z"/>
	<path fill="#FFFFFF" d="M149.528,200.122c0,0-10.28,12.443-20.247,9.811S140.134,198.523,149.528,200.122z"/>
	<path fill="#FFFFFF" d="M173.669,185.524c0,0-8.197,13.904-18.454,12.871C144.957,197.361,164.14,185.42,173.669,185.524z"/>
	<path fill="#FFFFFF" d="M85.777,226.346"/>
	<path fill="#FFFFFF" d="M101.821,200.702c0,0-15.398,4.839-22.325-2.796S94.813,194.245,101.821,200.702z"/>
	<path fill="#FFFFFF" d="M73.648,195.393c0,0-16.09,1.265-21.13-7.728C47.478,178.671,68.265,187.529,73.648,195.393z"/>
	<path fill="#FFFFFF" d="M85.548,209.947c0,0-15.628,4.032-22.149-3.952C56.877,198.011,78.884,203.135,85.548,209.947z"/>
	<path fill="#FFFFFF" d="M113.66,212.312c0,0-14.801,6.438-22.495-0.423C83.47,205.028,106.008,206.631,113.66,212.312z"/>
	<path fill="#FFFFFF" d="M21.079,196.886"/>
	<path fill="#FFFFFF" d="M48.532,184.183c0,0-15.538-4.366-17.165-14.545S46.193,174.945,48.532,184.183z"/>
	<path fill="#FFFFFF" d="M29.31,164.673c0,0-13.133-9.382-11.207-19.509S30.246,155.189,29.31,164.673z"/>
	<path fill="#FFFFFF" d="M29.059,183.471c0,0-14.559-6.966-14.416-17.274C14.786,155.889,28.339,173.969,29.059,183.471z"/>
	<path fill="#FFFFFF" d="M52.098,200.377c0,0-15.913-2.7-18.605-12.651S48.797,191.437,52.098,200.377z"/>
	<path fill="#FFFFFF" d="M17.689,140.378c0,0-8.84-13.504-3.374-22.245S21.998,131.879,17.689,140.378z"/>
	<path fill="#FFFFFF" d="M15.144,111.822c0,0-5.589-15.142,1.697-22.435S21.249,104.505,15.144,111.822z"/>
	<path fill="#FFFFFF" d="M4.369,127.229c0,0-8.126-13.945-2.214-22.39S9.115,118.965,4.369,127.229z"/>
	<path fill="#FFFFFF" d="M14.555,85.043c0,0-1.349-16.084,7.617-21.17S22.39,79.618,14.555,85.043z"/>
	<path fill="#FFFFFF" d="M3.063,97.019c0,0-4.114-15.607,3.836-22.17C14.849,68.286,9.84,90.319,3.063,97.019z"/>
	<path fill="#FFFFFF" d="M9.731,154.926c0,0-10.217-12.495-5.704-21.764S13.12,146.019,9.731,154.926z"/>
</g>
</svg>
